<?xml version="1.0" encoding="UTF-8"?>
<svg id="Layer_1" data-name="Layer 1" xmlns="http://www.w3.org/2000/svg" xmlns:xlink="http://www.w3.org/1999/xlink" viewBox="0 0 44.51 40.63">
  <defs>
    <style>
      .cls-1 {
        fill: url(#linear-gradient);
      }
    </style>
    <linearGradient id="linear-gradient" x1="37.54" y1="42.26" x2="4.05" y2="-2.17" gradientUnits="userSpaceOnUse">
      <stop offset="0" stop-color="#7966f7"/>
      <stop offset=".5" stop-color="#9485f9"/>
      <stop offset="1" stop-color="#a99dfa"/>
    </linearGradient>
  </defs>
  <path class="cls-1" d="M0,8.24V1.76C0,.79.79,0,1.76,0h25.93c.97,0,1.76.79,1.76,1.76v6.48c0,.97-.79,1.76-1.76,1.76H1.76c-.97,0-1.76-.79-1.76-1.76ZM27.68,30.63H1.76c-.97,0-1.76.79-1.76,1.76v6.48c0,.97.79,1.76,1.76,1.76h25.93c.97,0,1.76-.79,1.76-1.76v-6.48c0-.97-.79-1.76-1.76-1.76ZM27.98,15.12H2.05c-.97,0-1.76.79-1.76,1.76v6.48c0,.97.79,1.76,1.76,1.76h25.93c.97,0,1.76-.79,1.76-1.76v-6.48c0-.97-.79-1.76-1.76-1.76ZM43.71,34.76h-3.21v-3.14c0-.44-.36-.8-.8-.8s-.8.36-.8.8v3.14h-3.19c-.44,0-.8.36-.8.8s.36.8.8.8h3.19v3.26c0,.44.36.8.8.8s.8-.36.8-.8v-3.26h3.21c.44,0,.8-.36.8-.8s-.36-.8-.8-.8ZM35.71,5.57h6.06l-1.44,1.44c-.31.31-.31.82,0,1.13.16.16.36.23.57.23s.41-.08.57-.23l2.82-2.81c.16-.16.23-.36.23-.57,0-.21-.08-.41-.23-.57l-2.82-2.81c-.31-.31-.82-.31-1.13,0s-.31.82,0,1.13l1.46,1.46h-6.07c-.44,0-.8.36-.8.8s.36.8.8.8ZM36.38,23.53c.16.16.36.23.57.23s.41-.08.57-.23l2.31-2.31,2.27,2.27c.16.16.36.23.57.23s.41-.08.57-.23c.31-.31.31-.82,0-1.13l-2.27-2.27,2.22-2.22c.31-.31.31-.82,0-1.13s-.82-.31-1.13,0l-2.22,2.22-2.25-2.25c-.31-.31-.82-.31-1.13,0s-.31.82,0,1.13l2.25,2.25-2.31,2.31c-.31.31-.31.82,0,1.13Z"/>
</svg>