<?xml version="1.0" encoding="UTF-8"?>
<svg id="Layer_1" data-name="Layer 1" xmlns="http://www.w3.org/2000/svg" xmlns:xlink="http://www.w3.org/1999/xlink" viewBox="0 0 44.6 58.88">
  <defs>
    <style>
      .cls-1 {
        fill: url(#linear-gradient-2);
      }

      .cls-2 {
        fill: url(#linear-gradient);
      }
    </style>
    <linearGradient id="linear-gradient" x1="41.75" y1="59.94" x2="13.91" y2="23.52" gradientUnits="userSpaceOnUse">
      <stop offset="0" stop-color="#7966f7"/>
      <stop offset=".5" stop-color="#9485f9"/>
      <stop offset="1" stop-color="#a99dfa"/>
    </linearGradient>
    <linearGradient id="linear-gradient-2" x1="21.47" y1="24.11" x2="2.46" y2="-.76" xlink:href="#linear-gradient"/>
  </defs>
  <path class="cls-2" d="M42.38,49.16h-16.28c-1.23,0-2.22,1-2.22,2.22v2.34c-1.27-.02-2.3-1.14-2.3-2.53v-4.6h13.51c1.23,0,2.22-1,2.22-2.22v-5.28c0-1.23-1-2.22-2.22-2.22h-16.28c-1.23,0-2.22,1-2.22,2.22v2.23c-1.28,0-2.32-1.14-2.32-2.53v-4.48h15.3c1.23,0,2.22-1,2.22-2.22v-5.28c0-1.23-1-2.22-2.22-2.22H13.28c-1.23,0-2.22,1-2.22,2.22v5.28c0,1.21.97,2.19,2.17,2.22v4.48c0,1.96,1.5,3.56,3.36,3.57v2.02c0,1.23,1,2.22,2.22,2.22h1.73v4.6c0,1.96,1.5,3.55,3.34,3.57v1.9c0,1.23,1,2.22,2.22,2.22h16.28c1.23,0,2.22-1,2.22-2.22v-5.28c0-1.23-1-2.22-2.22-2.22Z"/>
  <path class="cls-1" d="M8.72,26.49v-4.47h14.73c1.23,0,2.22-1,2.22-2.22v-5.28c0-1.23-1-2.22-2.22-2.22H7.17c-1.23,0-2.22,1-2.22,2.22v1.99c-1.28,0-2.32-1.14-2.32-2.53v-4.25h15.87c1.23,0,2.22-1,2.22-2.22V2.22c0-1.23-1-2.22-2.22-2.22H2.22C1,0,0,1,0,2.22v5.28c0,1.01.68,1.85,1.59,2.12v4.35c0,1.96,1.5,3.56,3.36,3.57v2.25c0,1.23,1,2.22,2.22,2.22h.51v4.47c0,1.97,1.51,3.57,3.36,3.57v-1.04c-1.28,0-2.33-1.14-2.33-2.53Z"/>
</svg>