<?xml version="1.0" encoding="UTF-8"?>
<svg id="Layer_1" data-name="Layer 1" xmlns="http://www.w3.org/2000/svg" xmlns:xlink="http://www.w3.org/1999/xlink" viewBox="0 0 37.04 48.06">
  <defs>
    <style>
      .cls-1 {
        fill: url(#linear-gradient);
      }
    </style>
    <linearGradient id="linear-gradient" x1="22.22" y1="35.84" x2="-.27" y2="6.42" gradientUnits="userSpaceOnUse">
      <stop offset="0" stop-color="#7966f7"/>
      <stop offset=".5" stop-color="#9485f9"/>
      <stop offset="1" stop-color="#a99dfa"/>
    </linearGradient>
  </defs>
  <path class="cls-1" d="M35.74,13.48L23.02.96c-.62-.62-1.46-.96-2.33-.96H1.75C.79,0,0,.79,0,1.76v44.54c0,.97.79,1.76,1.75,1.76h33.53c.97,0,1.76-.79,1.76-1.76v-29.72c0-1.17-.46-2.28-1.3-3.11ZM23.33,33.57c-.19.19-.43.28-.67.28s-.48-.09-.66-.28l-2.54-2.54v8.5c0,.52-.42.94-.94.94s-.94-.42-.94-.94v-8.49l-2.53,2.53c-.18.19-.42.28-.66.28s-.48-.09-.67-.28c-.36-.36-.36-.96,0-1.33l4.09-4.08c.19-.19.44-.27.69-.27,0,0,.02,0,.03,0s.02,0,.03,0c.26,0,.51.08.69.27l4.09,4.08c.36.37.36.97,0,1.33Z"/>
</svg>