<?xml version="1.0" encoding="UTF-8"?>
<svg id="Layer_1" data-name="Layer 1" xmlns="http://www.w3.org/2000/svg" xmlns:xlink="http://www.w3.org/1999/xlink" viewBox="0 0 226.16 33.28">
  <defs>
    <style>
      .cls-1 {
        fill: url(#linear-gradient-8);
      }

      .cls-2 {
        fill: url(#linear-gradient-7);
      }

      .cls-3 {
        fill: url(#linear-gradient-5);
      }

      .cls-4 {
        fill: url(#linear-gradient-6);
      }

      .cls-5 {
        fill: url(#linear-gradient-9);
      }

      .cls-6 {
        fill: url(#linear-gradient-4);
      }

      .cls-7 {
        fill: url(#linear-gradient-3);
      }

      .cls-8 {
        fill: url(#linear-gradient-2);
      }

      .cls-9 {
        fill: url(#linear-gradient);
      }

      .cls-10 {
        fill: url(#linear-gradient-10);
      }

      .cls-11 {
        fill: #1b024b;
      }
    </style>
    <linearGradient id="linear-gradient" x1="35.52" y1="17.06" x2="35.54" y2="17.06" gradientUnits="userSpaceOnUse">
      <stop offset="0" stop-color="#1b024b"/>
      <stop offset="1" stop-color="#1e056d"/>
    </linearGradient>
    <linearGradient id="linear-gradient-2" x1="30.64" y1="12.46" x2="30.65" y2="12.46" xlink:href="#linear-gradient"/>
    <linearGradient id="linear-gradient-3" x1="28.76" y1="28.48" x2="38.51" y2="28.48" xlink:href="#linear-gradient"/>
    <linearGradient id="linear-gradient-4" x1="9.75" y1="28.48" x2="28.76" y2="28.48" xlink:href="#linear-gradient"/>
    <linearGradient id="linear-gradient-5" x1="28.76" y1="11.84" x2="38.51" y2="11.84" xlink:href="#linear-gradient"/>
    <linearGradient id="linear-gradient-6" x1="2.98" y1="16.22" x2="2.99" y2="16.22" xlink:href="#linear-gradient"/>
    <linearGradient id="linear-gradient-7" x1="7.86" y1="20.83" x2="7.88" y2="20.83" xlink:href="#linear-gradient"/>
    <linearGradient id="linear-gradient-8" x1="0" y1="4.8" x2="9.75" y2="4.8" xlink:href="#linear-gradient"/>
    <linearGradient id="linear-gradient-9" x1="9.75" y1="4.8" x2="28.76" y2="4.8" xlink:href="#linear-gradient"/>
    <linearGradient id="linear-gradient-10" x1="0" y1="21.44" x2="9.75" y2="21.44" xlink:href="#linear-gradient"/>
  </defs>
  <g>
    <path class="cls-11" d="M55.81,9.91h3.31v2.23h.05c.51-1.53,1.81-2.28,3.95-2.28h1.55v2.86h-1.61c-3.19,0-3.93.73-3.93,3.69v7.46h-3.34v-13.96Z"/>
    <path class="cls-11" d="M66.95,4.34h3.34v3.46h-3.34v-3.46ZM66.95,9.91h3.34v13.96h-3.34v-13.96Z"/>
    <path class="cls-11" d="M73.75,9.91h3.26v2.06h.05c.64-1.56,1.76-2.23,5.02-2.23,4.79,0,6.12,1.73,6.12,7.16s-1.33,7.16-6.12,7.16c-3.26,0-4.26-.65-4.95-2.24h-.05v7.13h-3.34V9.91ZM80.91,21.16c3.31,0,3.87-.65,3.87-4.27s-.56-4.24-3.87-4.24-3.87.7-3.87,3.52v1.46c0,2.84.71,3.54,3.87,3.54Z"/>
    <path class="cls-11" d="M91.26,9.91h3.26v2.06h.05c.64-1.56,1.76-2.23,5.02-2.23,4.79,0,6.12,1.73,6.12,7.16s-1.33,7.16-6.12,7.16c-3.26,0-4.26-.65-4.95-2.24h-.05v7.13h-3.34V9.91ZM98.42,21.16c3.31,0,3.87-.65,3.87-4.27s-.56-4.24-3.87-4.24-3.87.7-3.87,3.52v1.46c0,2.84.71,3.54,3.87,3.54Z"/>
    <path class="cls-11" d="M108.77,4.34h3.34v19.54h-3.34V4.34Z"/>
    <path class="cls-11" d="M115.12,16.92c0-5.5,1.55-7.21,7.14-7.21s6.93,1.63,6.93,6.83v1.41h-10.73v.13c0,2.64.64,3.31,3.93,3.31,2.63,0,3.44-.48,3.44-1.98v-.08h3.34v.23c0,3.31-1.78,4.52-6.81,4.52-5.68,0-7.24-1.63-7.24-7.16ZM125.85,15.44v-.15c0-2.21-.64-2.89-3.59-2.89s-3.75.65-3.8,3.04h7.39Z"/>
    <path class="cls-11" d="M139.81,4.34h3.34v3.46h-3.34v-3.46ZM139.81,9.91h3.34v13.96h-3.34v-13.96Z"/>
    <path class="cls-11" d="M146.62,9.91h3.34v2.06h.05c.53-1.53,1.78-2.23,4.41-2.23s3.9.73,4.54,2.39h.03c.56-1.76,2.01-2.39,4.79-2.39,4.05,0,5.23,1.61,5.23,5.95v8.19h-3.37v-7.99c0-2.54-.38-3.24-2.93-3.24-2.73,0-3.24.73-3.24,3.29v7.93h-3.34v-7.99c0-2.54-.38-3.24-2.96-3.24s-3.19.65-3.19,3.29v7.93h-3.36v-13.96Z"/>
    <path class="cls-11" d="M172.33,9.91h3.26v2.06h.05c.64-1.56,1.76-2.23,5.02-2.23,4.79,0,6.12,1.73,6.12,7.16s-1.33,7.16-6.12,7.16c-3.26,0-4.26-.65-4.95-2.24h-.05v7.13h-3.34V9.91ZM179.5,21.16c3.31,0,3.87-.65,3.87-4.27s-.56-4.24-3.87-4.24-3.87.7-3.87,3.52v1.46c0,2.84.71,3.54,3.87,3.54Z"/>
    <path class="cls-11" d="M189.38,16.89c0-5.45,1.53-7.18,7.32-7.18s7.32,1.73,7.32,7.18-1.53,7.18-7.32,7.18-7.32-1.73-7.32-7.18ZM196.7,21.14c3.39,0,3.9-.75,3.9-4.24s-.51-4.24-3.9-4.24-3.9.75-3.9,4.24.54,4.24,3.9,4.24Z"/>
    <path class="cls-11" d="M207.02,9.91h3.31v2.23h.05c.51-1.53,1.81-2.28,3.95-2.28h1.55v2.86h-1.61c-3.19,0-3.93.73-3.93,3.69v7.46h-3.34v-13.96Z"/>
    <path class="cls-11" d="M219,20.08v-7.41h-1.89v-2.76h1.89v-3.47h3.37v3.47h3.8v2.76h-3.8v6.78c0,1.31.33,1.58,1.91,1.58h1.89v2.84h-3.21c-2.98,0-3.95-1.15-3.95-3.79Z"/>
  </g>
  <g>
    <g>
      <polygon class="cls-9" points="35.52 17.07 35.52 17.05 35.54 17.07 35.52 17.07"/>
      <polygon class="cls-8" points="30.65 12.46 30.64 12.45 30.64 12.46 30.65 12.46"/>
      <g>
        <rect class="cls-7" x="28.76" y="23.68" width="9.75" height="9.61"/>
        <path class="cls-6" d="M20.98,33.28l7.79-9.6h-9.25c-1.3,0-2.54.59-3.35,1.6l-6.41,8.01h11.22Z"/>
        <path class="cls-3" d="M38.51,0h-9.75s0,23.68,0,23.68h0c6.16-4.85,9.75-12.19,9.75-19.96V0Z"/>
      </g>
    </g>
    <g>
      <polygon class="cls-4" points="2.98 16.22 2.99 16.23 2.99 16.22 2.98 16.22"/>
      <polygon class="cls-2" points="7.86 20.82 7.88 20.83 7.88 20.82 7.86 20.82"/>
      <g>
        <rect class="cls-1" width="9.75" height="9.61"/>
        <path class="cls-5" d="M17.54,0l-7.79,9.6h9.25c1.3,0,2.54-.59,3.35-1.6L28.76,0h-11.22Z"/>
        <path class="cls-10" d="M0,33.28h9.75s0-23.68,0-23.68h0C3.59,14.45,0,21.8,0,29.56v3.72Z"/>
      </g>
    </g>
  </g>
</svg>