<?xml version="1.0" encoding="UTF-8"?>
<svg id="Layer_1" data-name="Layer 1" xmlns="http://www.w3.org/2000/svg" xmlns:xlink="http://www.w3.org/1999/xlink" viewBox="0 0 192 192">
  <defs>
    <style>
      .cls-1 {
        filter: url(#drop-shadow-4);
      }

      .cls-2 {
        fill: url(#linear-gradient-8);
      }

      .cls-3 {
        fill: url(#linear-gradient-7);
      }

      .cls-4 {
        fill: url(#linear-gradient-5);
      }

      .cls-5 {
        fill: url(#linear-gradient-6);
      }

      .cls-6 {
        fill: url(#linear-gradient-9);
      }

      .cls-7 {
        fill: url(#linear-gradient-4);
      }

      .cls-8 {
        fill: url(#linear-gradient-3);
      }

      .cls-9 {
        fill: url(#linear-gradient-2);
      }

      .cls-10 {
        fill: url(#linear-gradient);
      }

      .cls-11 {
        fill: url(#linear-gradient-10);
      }

      .cls-12 {
        fill: #f9f7ff;
      }
    </style>
    <filter id="drop-shadow-4" x="0" y="0" width="192" height="192" filterUnits="userSpaceOnUse">
      <feOffset dx="3" dy="3"/>
      <feGaussianBlur result="blur" stdDeviation="10"/>
      <feFlood flood-color="#1b024b" flood-opacity=".4"/>
      <feComposite in2="blur" operator="in"/>
      <feComposite in="SourceGraphic"/>
    </filter>
    <linearGradient id="linear-gradient" x1="146.68" y1="97.3" x2="146.72" y2="97.3" gradientUnits="userSpaceOnUse">
      <stop offset="0" stop-color="#1b024b"/>
      <stop offset="1" stop-color="#1e056d"/>
    </linearGradient>
    <linearGradient id="linear-gradient-2" x1="131.46" y1="82.96" x2="131.5" y2="82.96" xlink:href="#linear-gradient"/>
    <linearGradient id="linear-gradient-3" x1="125.62" y1="132.89" x2="156" y2="132.89" xlink:href="#linear-gradient"/>
    <linearGradient id="linear-gradient-4" x1="66.39" y1="132.88" x2="125.61" y2="132.88" xlink:href="#linear-gradient"/>
    <linearGradient id="linear-gradient-5" x1="125.62" y1="81.04" x2="156" y2="81.04" xlink:href="#linear-gradient"/>
    <linearGradient id="linear-gradient-6" x1="45.28" y1="94.7" x2="45.32" y2="94.7" gradientUnits="userSpaceOnUse">
      <stop offset="0" stop-color="#7966f7"/>
      <stop offset=".5" stop-color="#9485f9"/>
      <stop offset="1" stop-color="#a99dfa"/>
    </linearGradient>
    <linearGradient id="linear-gradient-7" x1="60.5" y1="109.04" x2="60.54" y2="109.04" xlink:href="#linear-gradient-6"/>
    <linearGradient id="linear-gradient-8" x1="36" y1="59.11" x2="66.38" y2="59.11" xlink:href="#linear-gradient-6"/>
    <linearGradient id="linear-gradient-9" x1="66.39" y1="59.12" x2="125.61" y2="59.12" xlink:href="#linear-gradient-6"/>
    <linearGradient id="linear-gradient-10" x1="36" y1="110.96" x2="66.38" y2="110.96" xlink:href="#linear-gradient-6"/>
  </defs>
  <g class="cls-1">
    <rect class="cls-12" width="192" height="192" rx="28.36" ry="28.36"/>
    <g>
      <g>
        <polygon class="cls-10" points="146.68 97.32 146.68 97.29 146.72 97.32 146.68 97.32"/>
        <polygon class="cls-9" points="131.5 82.97 131.46 82.94 131.46 82.97 131.5 82.97"/>
        <g>
          <rect class="cls-8" x="125.62" y="117.92" width="30.38" height="29.93"/>
          <path class="cls-7" d="M101.35,147.84l24.26-29.92h-28.81c-4.07,0-7.91,1.83-10.43,4.98l-19.98,24.94h34.97Z"/>
          <path class="cls-4" d="M156,44.15h-30.38s0,73.77,0,73.77h0c19.2-15.1,30.38-37.98,30.38-62.19v-11.59Z"/>
        </g>
      </g>
      <g>
        <polygon class="cls-5" points="45.28 94.68 45.32 94.71 45.32 94.68 45.28 94.68"/>
        <polygon class="cls-3" points="60.5 109.03 60.54 109.06 60.54 109.03 60.5 109.03"/>
        <g>
          <rect class="cls-2" x="36" y="44.15" width="30.38" height="29.93"/>
          <path class="cls-6" d="M90.65,44.16l-24.26,29.92h28.81c4.07,0,7.91-1.83,10.43-4.98l19.98-24.94h-34.97Z"/>
          <path class="cls-11" d="M36,147.85h30.38s0-73.77,0-73.77h0c-19.2,15.1-30.38,37.98-30.38,62.19v11.59Z"/>
        </g>
      </g>
    </g>
  </g>
</svg>